<svg xmlns="http://www.w3.org/2000/svg" xmlns:xlink="http://www.w3.org/1999/xlink" preserveAspectRatio="xMidYMid" width="33" height="26" viewBox="0 0 33 26">
  <defs>
    <style>
      .cls-1 {
        fill: #fff;
        fill-rule: evenodd;
      }
    </style>
  </defs>
  <path d="M32.861,5.724 L32.864,5.725 L28.223,15.921 L28.223,15.921 C27.994,16.424 27.499,16.782 26.915,16.820 L26.915,16.820 L13.551,17.701 L14.323,19.882 L28.875,19.882 C30.584,19.882 31.969,21.252 31.969,22.941 C31.969,24.630 30.584,26.000 28.875,26.000 C27.166,26.000 25.781,24.630 25.781,22.941 L11.344,22.941 C11.344,24.630 9.959,26.000 8.250,26.000 C6.541,26.000 5.156,24.630 5.156,22.941 C5.156,21.252 6.541,19.882 8.250,19.882 L11.045,19.882 L5.090,3.059 L1.547,3.059 C0.692,3.059 0.000,2.374 0.000,1.529 C0.000,0.684 0.692,-0.000 1.547,-0.000 L6.187,-0.000 C6.862,-0.000 7.430,0.430 7.642,1.026 L7.648,1.024 L8.548,3.568 L31.453,3.568 C32.307,3.568 33.000,4.253 33.000,5.098 C33.000,5.322 32.949,5.533 32.861,5.724 ZM9.631,6.627 L12.490,14.705 L25.783,13.829 L29.061,6.627 L9.631,6.627 Z" class="cls-1"/>
</svg>
