<svg xmlns="http://www.w3.org/2000/svg" xmlns:xlink="http://www.w3.org/1999/xlink" preserveAspectRatio="xMidYMid" width="26" height="26" viewBox="0 0 26 26">
  <defs>
    <style>
      .cls-1 {
        fill: #fff;
        fill-rule: evenodd;
      }
    </style>
  </defs>
  <path d="M13.000,0.003 C5.820,0.003 -0.001,5.824 -0.001,13.004 C-0.001,20.185 5.820,26.005 13.000,26.005 C20.180,26.005 26.001,20.185 26.001,13.004 C26.001,5.824 20.180,0.003 13.000,0.003 ZM19.436,21.985 C19.478,21.682 19.500,21.345 19.500,20.968 C19.500,17.244 17.383,14.123 14.534,13.284 C15.931,12.689 16.911,11.306 16.911,9.695 C16.911,7.541 15.160,5.795 13.000,5.795 C10.840,5.795 9.090,7.541 9.090,9.695 C9.090,11.306 10.069,12.689 11.467,13.284 C8.617,14.122 6.500,17.244 6.500,20.968 C6.500,21.345 6.522,21.682 6.564,21.985 C3.770,19.979 1.949,16.705 1.949,13.004 C1.949,6.901 6.897,1.954 13.000,1.954 C19.103,1.954 24.051,6.901 24.051,13.004 C24.051,16.705 22.230,19.979 19.436,21.985 Z" class="cls-1"/>
</svg>
